# xmcd
#
# Track frame offsets: 
#        150
#        7815
#        17887
#        31394
#        42116
#        51825
#        61797
#        72116
#        85762
#        97062
#        112433
#        125761
#
# Disc length: 1830 seconds
#
# Revision: 0
# Processed by: cddbd v1.5.2PL0 Copyright (c) Steve Scherf et al.
# Submitted via: ExactAudioCopy v1.0b1
#
DISCID=9e07240c
DTITLE=Country Gentlemen - One Wide River
DYEAR=1984
DGENRE=Bluegrass
TTITLE0=One Wide River
TTITLE1=Born Again
TTITLE2=Heaven
TTITLE3=Sunny Side of Life
TTITLE4=Gone Home
TTITLE5=Little White Church
TTITLE6=I Am A Pilgrim
TTITLE7=Rank Stranger
TTITLE8=He'll Set Your Fields on Fire
TTITLE9=Weapon of Prayer
TTITLE10=I'm Using My Bible For a Road Map
TTITLE11=Are You Washed in The Blood
EXTD=
EXTT0=
EXTT1=
EXTT2=
EXTT3=
EXTT4=
EXTT5=
EXTT6=
EXTT7=
EXTT8=
EXTT9=
EXTT10=
EXTT11=
PLAYORDER=
